# xmcd
#
# Track frame offsets: 
#        150
#        19021
#        38112
#        56934
#
# Disc length: 1010 seconds
#
# Revision: 1
# Processed by: cddbd v1.5.2PL0 Copyright (c) Steve Scherf et al.
# Submitted via: ExactAudioCopyFreeDBPlugin 1.0
#
DISCID=2e03f004
DTITLE=Gero - DREAMER
DYEAR=2015
DGENRE=J-Pop
TTITLE0=DREAMER
TTITLE1=Farewell
TTITLE2=DREAMER [Instrumental]
TTITLE3=Farewell [Instrumental]
EXTD=
EXTT0=
EXTT1=
EXTT2=
EXTT3=
PLAYORDER=
